{"title":"NASA-The.Godmother.2011.DVDRip.x264.AC3-Psycho","uid":6710721,"size":828139878,"categoryP":"video","categoryS":"movies","magnet":"?xt=urn:btih:a840ca8f02aaec629623ba7adf4039ade9b462ad&amp;dn=NASA-The.Godmother.2011.DVDRip.x264.AC3-Psycho&amp;tr=udp%3A%2F%2Ftracker.openbittorrent.com%3A80&amp;tr=udp%3A%2F%2Fopen.demonii.com%3A1337&amp;tr=udp%3A%2F%2Ftracker.coppersurfer.tk%3A6969&amp;tr=udp%3A%2F%2Fexodus.desync.com%3A6969","seeders":0,"leechers":0,"uploader":"Francisco1206","files":-1,"time":1317344860,"description":"IMDB rating: 5.4/10 (from 356 users)\nGenre: Comedy\n\nCAST:\n\nWhitney Anderson..........Jennifer Prodan\nDragos Bucur..............Radu Prodan\nStefan Iancu..............David Prodan\nVelea Alex................Spanu\nCatalina Grama............Katia \nBobonete Mihai............Manase\nRazvan Vasilescu..........Nicu\nLeonid Doni...............Zero\nMihai Dragomir............Magic\nGheorghe Ifrim............Manea\nLucian Ifrim..............Grigore\nLascus Puiu-Mircea........Bumbescu\nFlorin Busuioc............Father Pafnutie\nLucia Maier...............Despina\nGGabriel Radu.............Iancu\n\nFormat                           : Matroska\nFile size                        : 782 MiB\nDuration                         : 1h 43mn\nOverall bit rate                 : 1 057 Kbps\nEncoded date                     : UTC 2011-09-29 23:01:54\nWriting application              : mkvmerge v4.9.1 (\\'Ich will\\') creado el Jul 11 2011 23:53:15\nWriting library                  : libebml v1.2.1 + libmatroska v1.1.1\n\nVideo\nID                               : 1\nFormat                           : AVC\nFormat/Info                      : Advanced Video Codec\nFormat profile                   : &lt;a class=&quot;__cf_email__&quot; href=&quot;/cdn-cgi/l/email-protection&quot; data-cfemail=&quot;fcb19d9592bcb0ced2ce&quot;&gt;[email&amp;#160;protected]&lt;/a&gt;&lt;script data-cfhash='f9e31' type=&quot;text/javascript&quot;&gt;\n/* &lt;![CDATA[ */!function(){try{var t=&quot;currentScript&quot;in document?document.currentScript:function(){for(var t=document.getElementsByTagName(&quot;script&quot;),e=t.length;e--;)if(t[e].getAttribute(&quot;data-cfhash&quot;))return t[e]}();if(t&amp;&amp;t.previousSibling){var e,r,n,i,c=t.previousSibling,a=c.getAttribute(&quot;data-cfemail&quot;);if(a){for(e=&quot;&quot;,r=parseInt(a.substr(0,2),16),n=2;a.length-n;n+=2)i=parseInt(a.substr(n,2),16)^r,e+=String.fromCharCode(i);e=document.createTextNode(e),c.parentNode.replaceChild(e,c)}t.parentNode.removeChild(t);}}catch(u){}}()/* ]]&gt; */&lt;/script&gt;\nFormat settings, CABAC           : Yes\nFormat settings, ReFrames        : 4 frames\nMuxing mode                      : Container profile=&lt;a class=&quot;__cf_email__&quot; href=&quot;/cdn-cgi/l/email-protection&quot; data-cfemail=&quot;085d666366677f66483a263a&quot;&gt;[email&amp;#160;protected]&lt;/a&gt;&lt;script data-cfhash='f9e31' type=&quot;text/javascript&quot;&gt;\n/* &lt;![CDATA[ */!function(){try{var t=&quot;currentScript&quot;in document?document.currentScript:function(){for(var t=document.getElementsByTagName(&quot;script&quot;),e=t.length;e--;)if(t[e].getAttribute(&quot;data-cfhash&quot;))return t[e]}();if(t&amp;&amp;t.previousSibling){var e,r,n,i,c=t.previousSibling,a=c.getAttribute(&quot;data-cfemail&quot;);if(a){for(e=&quot;&quot;,r=parseInt(a.substr(0,2),16),n=2;a.length-n;n+=2)i=parseInt(a.substr(n,2),16)^r,e+=String.fromCharCode(i);e=document.createTextNode(e),c.parentNode.replaceChild(e,c)}t.parentNode.removeChild(t);}}catch(u){}}()/* ]]&gt; */&lt;/script&gt;\nCodec ID                         : V_MPEG4/ISO/AVC\nDuration                         : 1h 43mn\nBit rate                         : 908 Kbps\nNominal bit rate                 : 923 Kbps\nWidth                            : 624 pixels\nHeight                           : 336 pixels\nDisplay aspect ratio             : 1.857\nFrame rate                       : 23.976 fps\nResolution                       : 8 bits\nColorimetry                      : 4:2:0\nScan type                        : Progressive\nBits/(Pixel*Frame)               : 0.181\nStream size                      : 671 MiB (86%)\nWriting library                  : x264 core 112\n\nAudio\nID                               : 2\nFormat                           : AC-3\nFormat/Info                      : Audio Coding 3\nCodec ID                         : A_AC3\nDuration                         : 1h 43mn\nBit rate mode                    : Constant\nBit rate                         : 128 Kbps\nChannel(s)                       : 2 channels\nChannel positions                : Front: L R\nSampling rate                    : 48.0 KHz\nStream size                      : 94.7 MiB (12%)\nLanguage                         : Romanian\n\nText(subtitles)\nID                               : 3\nFormat                           : VobSub\nCodec ID                         : S_VOBSUB\nCodec ID/Info                    : The same subtitle format used on DVDs\nLanguage                         : Romanian\nLanguage                         : English\nLanguage                         : Spanish\n\nRecommended player :VLC media player....[url]http://www.videolan.org/vlc/[/url]\n\nSEED back for SPEED \n\n\n\n","torrent":{"xt":"urn:btih:a840ca8f02aaec629623ba7adf4039ade9b462ad","amp;dn":"NASA-The.Godmother.2011.DVDRip.x264.AC3-Psycho","amp;tr":["udp%3A%2F%2Ftracker.openbittorrent.com%3A80","udp%3A%2F%2Fopen.demonii.com%3A1337","udp%3A%2F%2Ftracker.coppersurfer.tk%3A6969","udp%3A%2F%2Fexodus.desync.com%3A6969"],"infoHash":"a840ca8f02aaec629623ba7adf4039ade9b462ad","infoHashBuffer":{"type":"Buffer","data":[168,64,202,143,2,170,236,98,150,35,186,122,223,64,57,173,233,180,98,173]},"announce":[],"urlList":[]}}